<?xml version="1.0" standalone="no"?><!DOCTYPE svg PUBLIC "-//W3C//DTD SVG 1.1//EN" "http://www.w3.org/Graphics/SVG/1.1/DTD/svg11.dtd"><svg t="1645001932002" class="icon" viewBox="0 0 1280 1024" version="1.1" xmlns="http://www.w3.org/2000/svg" p-id="657" xmlns:xlink="http://www.w3.org/1999/xlink" width="250" height="200"><defs><style type="text/css"></style></defs><path d="M20.59799996 494.345L1260.38299996 494.345C1272.15299996 494.345 1279.99999996 502.192 1279.99999996 513.962s-7.847 19.617-19.617 19.617l-1239.785 0c-11.76999999 0-19.617-7.847-19.61699999-19.617s7.847-19.617 19.61699999-19.617z" p-id="658"></path><path d="M511.01999996 0c3.923 0 11.76999999 0 15.693 3.923 7.846 7.847 7.846 19.617 0 27.464l-478.65200001 482.575L526.71299996 988.69c7.846 7.846 7.846 19.617 0 27.463s-19.617 7.847-27.46400001 0l-490.42099999-490.421c-3.924-3.924-3.924-7.847-3.924-15.694s3.92399999-11.77 3.924-15.693l486.498-486.498c3.923-3.924 11.77-7.847 15.693-7.847z" p-id="659"></path></svg>